# xmcd
#
# Track frame offsets: 
#        150
#        14822
#        36462
#        50792
#        61010
#        77322
#        86275
#        100976
#        122295
#        135997
#        145940
#        168428
#
# Disc length: 2446 seconds
#
# Revision: 0
# Processed by: cddbd v1.5.1PL0 Copyright (c) Steve Scherf et al.
# Submitted via: ExactAudioCopy v0.90b4
#
DISCID=95098c0c
DTITLE=Big Bill Broonzy - Forever Gold
DYEAR=2003
DGENRE=Blues
TTITLE0=Baby, Please Don't Go
TTITLE1=Feelin' Low Down
TTITLE2=All I Got Belongs to You
TTITLE3=Alberta
TTITLE4=Tell Me Who
TTITLE5=Bill Baley
TTITLE6=Treat Everybody Right
TTITLE7=I Got Up One Morning Blues
TTITLE8=C.C. Rider
TTITLE9=Sixteen Tons
TTITLE10=Ridin' on Down
TTITLE11=In the Evening
EXTD=
EXTT0=
EXTT1=
EXTT2=
EXTT3=
EXTT4=
EXTT5=
EXTT6=
EXTT7=
EXTT8=
EXTT9=
EXTT10=
EXTT11=
PLAYORDER=
